<svg width="108" height="110" viewBox="0 0 108 110" fill="none" xmlns="http://www.w3.org/2000/svg">
<g filter="url(#filter0_d)">
<path fill-rule="evenodd" clip-rule="evenodd" d="M54 90C74.9868 90 92 72.9868 92 52C92 31.0132 74.9868 12 54 12C33.0132 12 16 31.0132 16 52C16 72.9868 33.0132 90 54 90Z" fill="white"/>
</g>
<path fill-rule="evenodd" clip-rule="evenodd" d="M54 100C80.5097 100 102 78.5097 102 52C102 25.4903 80.5097 4 54 4C27.4903 4 6 25.4903 6 52C6 78.5097 27.4903 100 54 100Z" fill="white"/>
<circle cx="54" cy="52" r="24" fill="url(#paint0_linear)"/>
<path fill-rule="evenodd" clip-rule="evenodd" d="M54 60C58.4183 60 62 56.4183 62 52C62 47.5817 58.4183 44 54 44C49.5817 44 46 47.5817 46 52C46 56.4183 49.5817 60 54 60Z" fill="url(#paint1_linear)"/>
<path fill-rule="evenodd" clip-rule="evenodd" d="M70 80C70 71.1634 62.8366 64 54 64C45.1634 64 38 71.1634 38 80C54 80 54 80 70 80Z" fill="url(#paint2_linear)"/>
<circle cx="70" cy="36" r="8" fill="white"/>
<path d="M63 39L67 43L62 44L63 39Z" fill="white"/>
<defs>
<filter id="filter0_d" x="0" y="0" width="108" height="110" filterUnits="userSpaceOnUse" color-interpolation-filters="sRGB">
<feFlood flood-opacity="0" result="BackgroundImageFix"/>
<feColorMatrix in="SourceAlpha" type="matrix" values="0 0 0 0 0 0 0 0 0 0 0 0 0 0 0 0 0 0 127 0"/>
<feOffset dy="4"/>
<feGaussianBlur stdDeviation="8"/>
<feColorMatrix type="matrix" values="0 0 0 0 0.643137 0 0 0 0 0.0156863 0 0 0 0 0.568627 0 0 0 0.8 0"/>
<feBlend mode="normal" in2="BackgroundImageFix" result="effect1_dropShadow"/>
<feBlend mode="normal" in="SourceGraphic" in2="effect1_dropShadow" result="shape"/>
</filter>
<linearGradient id="paint0_linear" x1="78" y1="28" x2="22.7388" y2="65.2188" gradientUnits="userSpaceOnUse">
<stop stop-color="#FFCB3C"/>
<stop offset="1" stop-color="#EA6EF5"/>
</linearGradient>
<linearGradient id="paint1_linear" x1="46" y1="44" x2="46" y2="60" gradientUnits="userSpaceOnUse">
<stop stop-color="white"/>
<stop offset="1" stop-color="white" stop-opacity="0.48"/>
</linearGradient>
<linearGradient id="paint2_linear" x1="38" y1="64" x2="38" y2="80" gradientUnits="userSpaceOnUse">
<stop stop-color="white"/>
<stop offset="1" stop-color="white" stop-opacity="0.48"/>
</linearGradient>
</defs>
</svg>
