<svg width="108" height="110" viewBox="0 0 108 110" fill="none" xmlns="http://www.w3.org/2000/svg">
<g filter="url(#filter0_d)">
<path fill-rule="evenodd" clip-rule="evenodd" d="M54 90C74.9868 90 92 72.9868 92 52C92 31.0132 74.9868 12 54 12C33.0132 12 16 31.0132 16 52C16 72.9868 33.0132 90 54 90Z" fill="white"/>
</g>
<path fill-rule="evenodd" clip-rule="evenodd" d="M54 100C80.5097 100 102 78.5097 102 52C102 25.4903 80.5097 4 54 4C27.4903 4 6 25.4903 6 52C6 78.5097 27.4903 100 54 100Z" fill="white"/>
<path d="M54 76C53.4033 75.9975 52.8258 75.7829 52.3645 75.3923C50.5327 73.8168 48.7881 72.3313 47.1962 71.0259L46.8255 70.6883C36.7071 62.2255 30.0123 56.6212 30.0123 48.0909C29.935 46.2536 30.222 44.4194 30.8558 42.7006C31.4896 40.9819 32.4569 39.4149 33.6983 38.0956C34.9397 36.7764 36.4291 35.7328 38.0752 35.0288C39.7213 34.3247 41.4893 33.9751 43.271 34.0014C45.9421 33.9884 48.5447 34.8732 50.6853 36.5222C51.9572 37.5113 53.0751 38.6953 54 40.0333C54.9249 38.6953 56.0428 37.5113 57.3147 36.5222C59.4553 34.8732 62.0579 33.9884 64.729 34.0014C66.5107 33.9751 68.2787 34.3247 69.9248 35.0288C71.5709 35.7328 73.0603 36.7764 74.3017 38.0956C75.5431 39.4149 76.5104 40.9819 77.1442 42.7006C77.778 44.4194 78.065 46.2536 77.9877 48.0909C77.9877 56.6212 71.3147 62.2255 61.1963 70.5982C59.5172 72.0162 57.62 73.5917 55.6355 75.3023C55.1864 75.7255 54.6075 75.9724 54 76V76Z" fill="url(#paint0_linear)"/>
<defs>
<filter id="filter0_d" x="0" y="0" width="108" height="110" filterUnits="userSpaceOnUse" color-interpolation-filters="sRGB">
<feFlood flood-opacity="0" result="BackgroundImageFix"/>
<feColorMatrix in="SourceAlpha" type="matrix" values="0 0 0 0 0 0 0 0 0 0 0 0 0 0 0 0 0 0 127 0"/>
<feOffset dy="4"/>
<feGaussianBlur stdDeviation="8"/>
<feColorMatrix type="matrix" values="0 0 0 0 0.243137 0 0 0 0 0.470588 0 0 0 0 1 0 0 0 1 0"/>
<feBlend mode="normal" in2="BackgroundImageFix" result="effect1_dropShadow"/>
<feBlend mode="normal" in="SourceGraphic" in2="effect1_dropShadow" result="shape"/>
</filter>
<linearGradient id="paint0_linear" x1="30" y1="76" x2="71.6283" y2="28.4248" gradientUnits="userSpaceOnUse">
<stop stop-color="#3E78FF"/>
<stop offset="1" stop-color="#96B6FF"/>
</linearGradient>
</defs>
</svg>
